<?xml version="1.0" encoding="UTF-8"?>
<svg version="1.1" xmlns="http://www.w3.org/2000/svg" width="502" height="497">
<path d="M0 0 C26.51128775 0.01716986 48.71801298 7.2383492 70.58334351 22.63092041 C71.20088501 23.06372314 71.81842651 23.49652588 72.4546814 23.94244385 C73.9338818 25.0140039 75.35849566 26.16016813 76.77084351 27.31842041 C76.77084351 27.97842041 76.77084351 28.63842041 76.77084351 29.31842041 C77.36091187 29.58686768 77.95098022 29.85531494 78.55892944 30.13189697 C95.91410154 39.44162505 105.04119943 60.56857034 110.77084351 78.31842041 C120.19041745 110.49398977 116.85282586 144.9246451 101.58334351 174.81842041 C86.38393918 202.01391373 61.83072008 219.98438501 32.11217499 228.66437244 C22.41002 231.37465708 13.0602735 231.61034557 3.06185913 231.59307861 C1.3887713 231.59743239 -0.28431454 231.60261775 -1.95739746 231.60856628 C-6.4733472 231.62188553 -10.98921291 231.62254365 -15.50517845 231.62000299 C-19.27822681 231.61892998 -23.0512584 231.62382426 -26.82430315 231.62860841 C-35.71805623 231.63967576 -44.61176706 231.64015447 -53.50552368 231.63409424 C-62.68636979 231.62803503 -71.86706341 231.64042098 -81.04788351 231.66166431 C-88.93595911 231.67924632 -96.82398599 231.68528767 -104.71208048 231.68202657 C-109.42144333 231.68021055 -114.13069699 231.68288294 -118.84004211 231.6967411 C-123.25931921 231.70926209 -127.67835639 231.70743021 -132.09762955 231.69433022 C-133.72225651 231.69195356 -135.3469001 231.69473779 -136.97150803 231.70295334 C-139.18198235 231.71332973 -141.39163752 231.70539551 -143.6020813 231.69264221 C-144.84088799 231.69280995 -146.07969467 231.6929777 -147.35604095 231.69315052 C-148.30416908 231.56948958 -149.25229721 231.44582865 -150.22915649 231.31842041 C-153.02585568 227.12337164 -152.03034138 224.76987546 -151.11196899 219.96295166 C-148.11395523 207.58619573 -143.49997022 196.78281117 -136.22915649 186.31842041 C-135.69677368 185.54111572 -135.16439087 184.76381104 -134.61587524 183.96295166 C-134.15825806 183.42025635 -133.70064087 182.87756104 -133.22915649 182.31842041 C-132.56915649 182.31842041 -131.90915649 182.31842041 -131.22915649 182.31842041 C-130.97134399 181.73576416 -130.71353149 181.15310791 -130.44790649 180.55279541 C-129.13081633 178.13813011 -127.67827265 176.50101864 -125.72915649 174.56842041 C-125.12071899 173.95482666 -124.51228149 173.34123291 -123.88540649 172.70904541 C-122.22915649 171.31842041 -122.22915649 171.31842041 -120.22915649 171.31842041 C-120.22915649 170.65842041 -120.22915649 169.99842041 -120.22915649 169.31842041 C-104.64476401 156.04690596 -84.06240454 148.68284438 -63.76846313 147.73394775 C-62.99141809 147.69445196 -62.21437304 147.65495617 -61.41378117 147.61426353 C-54.05245832 147.26434848 -46.69498574 147.15457384 -39.32632256 147.11919022 C-37.01399704 147.10702929 -34.70182951 147.08750732 -32.38957214 147.06607056 C-25.83037726 147.00561815 -19.27121624 146.95053107 -12.71182251 146.91705322 C-8.6578664 146.89583876 -4.60423198 146.86035921 -0.55046272 146.81629562 C0.96775421 146.80237977 2.48602761 146.79347021 4.00430489 146.79024124 C25.98120329 146.73848571 45.8201887 142.55406842 63.89584351 129.38092041 C66.77084351 127.31842041 66.77084351 127.31842041 68.77084351 127.31842041 C68.77084351 126.65842041 68.77084351 125.99842041 68.77084351 125.31842041 C70.75344776 123.63109764 72.75407771 121.96475984 74.77084351 120.31842041 C75.10084351 119.65842041 75.43084351 118.99842041 75.77084351 118.31842041 C76.43084351 118.31842041 77.09084351 118.31842041 77.77084351 118.31842041 C78.11115601 117.54498291 78.11115601 117.54498291 78.45834351 116.75592041 C79.77084351 114.31842041 79.77084351 114.31842041 82.08334351 111.25592041 C86.88397686 104.65149878 89.65237086 97.13452041 91.77084351 89.31842041 C91.27455444 90.36900635 90.77826538 91.41959229 90.26693726 92.50201416 C86.46385498 100.41959736 82.73403119 107.77616284 76.77084351 114.31842041 C76.04381226 115.1369751 75.31678101 115.95552979 74.56771851 116.79888916 C65.3572414 126.61844621 54.75018681 132.85483161 41.77084351 136.31842041 C40.54881226 136.65486572 40.54881226 136.65486572 39.30209351 136.99810791 C34.36242644 138.23302468 29.85551327 138.50331749 24.77084351 138.31842041 C25.88081098 135.26600987 27.19995415 132.49097091 28.83334351 129.69342041 C31.76445418 124.58761472 32.01351045 120.38981978 32.08334351 114.63092041 C32.11234741 113.85297119 32.14135132 113.07502197 32.17123413 112.27349854 C32.22752076 107.0821396 31.31479456 103.54730392 28.73251343 99.03399658 C27.77084351 97.31842041 27.77084351 97.31842041 26.77084351 94.31842041 C26.11084351 94.31842041 25.45084351 94.31842041 24.77084351 94.31842041 C24.77084351 93.65842041 24.77084351 92.99842041 24.77084351 92.31842041 C24.23459351 92.05029541 23.69834351 91.78217041 23.14584351 91.50592041 C21.36233495 90.61416613 19.59381152 89.69233957 17.83334351 88.75592041 C13.04528141 86.50846269 8.66235248 86.18195865 3.41146851 86.03717041 C1.61515991 85.98109619 1.61515991 85.98109619 -0.21743774 85.92388916 C-2.74086301 85.85313892 -5.26430073 85.7828318 -7.78775024 85.71295166 C-9.57632446 85.65687744 -9.57632446 85.65687744 -11.40103149 85.59967041 C-12.49512329 85.56937744 -13.58921509 85.53908447 -14.71646118 85.50787354 C-17.22915649 85.31842041 -17.22915649 85.31842041 -18.22915649 84.31842041 C-18.35177537 82.856951 -18.40695234 81.38974685 -18.43447876 79.92340088 C-18.45441391 78.98146378 -18.47434906 78.03952667 -18.49488831 77.06904602 C-18.51997215 75.51799416 -18.51997215 75.51799416 -18.54556274 73.93560791 C-18.57687035 72.3301133 -18.57687035 72.3301133 -18.60881042 70.69218445 C-18.67519026 67.19267189 -18.73387866 63.69308484 -18.79165649 60.19342041 C-18.83378191 57.81085153 -18.87593688 55.42828317 -18.91812134 53.04571533 C-19.14310898 39.90802006 -19.32765543 26.77062742 -19.35415649 13.63092041 C-19.35874878 12.36425537 -19.36334106 11.09759033 -19.36807251 9.7925415 C-19.36605835 8.66283936 -19.36404419 7.53313721 -19.36196899 6.36920166 C-19.36084106 5.4066748 -19.35971313 4.44414795 -19.35855103 3.45245361 C-19.00412214 -2.39294809 -4.8856037 0.01228668 0 0 Z M93.77084351 78.31842041 C94.77084351 82.31842041 94.77084351 82.31842041 94.77084351 82.31842041 Z " fill="#868585" transform="translate(280.2291564941406,209.68157958984375)"/>
<path d="M0 0 C1.56677796 -0.00135844 3.1335556 -0.00314084 4.70033264 -0.00531006 C8.91231365 -0.00982728 13.12426988 -0.0081198 17.33625126 -0.00493097 C21.75466537 -0.00238302 26.17307749 -0.00475116 30.5914917 -0.00631714 C37.99508035 -0.00812947 45.39865897 -0.00575478 52.80224609 -0.00097656 C61.36907504 0.00448843 69.93588028 0.00268351 78.50270867 -0.00280297 C85.86938183 -0.0073321 93.23604783 -0.00798636 100.60272193 -0.0053643 C104.99841944 -0.00380352 109.39410576 -0.00360283 113.78980255 -0.00690079 C117.91028401 -0.0097774 122.03073459 -0.00780776 126.15121269 -0.00200653 C127.66660702 -0.00067883 129.18200392 -0.00107321 130.69739723 -0.0032692 C132.75673559 -0.00597972 134.81597333 -0.00260113 136.87530518 0.00241089 C138.03001942 0.00278791 139.18473366 0.00316494 140.37443924 0.00355339 C142.94433594 0.12939453 142.94433594 0.12939453 143.94433594 1.12939453 C144.6706375 8.68293078 142.4156921 15.04883086 139.94433594 22.12939453 C139.64398438 23.01111328 139.34363281 23.89283203 139.03417969 24.80126953 C135.5805687 34.19030719 129.76018414 43.7649022 122.94433594 51.12939453 C122.28433594 51.12939453 121.62433594 51.12939453 120.94433594 51.12939453 C120.94433594 51.78939453 120.94433594 52.44939453 120.94433594 53.12939453 C120.28433594 53.12939453 119.62433594 53.12939453 118.94433594 53.12939453 C118.94433594 53.78939453 118.94433594 54.44939453 118.94433594 55.12939453 C118.28433594 55.12939453 117.62433594 55.12939453 116.94433594 55.12939453 C116.73035156 55.70173828 116.51636719 56.27408203 116.29589844 56.86376953 C108.87542594 69.30271187 85.49549208 77.21756137 72.16552734 80.62994385 C61.20162867 83.09525443 50.57651325 83.41212685 39.39125633 83.40378952 C36.48305826 83.40280954 33.57521521 83.41593782 30.66706848 83.43276978 C22.40787443 83.47860021 14.14872152 83.50362174 5.8894043 83.51025391 C0.81028506 83.5153119 -4.26845749 83.53976939 -9.34744835 83.5755806 C-11.2628419 83.58527268 -13.17828793 83.58776956 -15.0936985 83.58240891 C-39.34264439 83.51770828 -61.50792836 89.65964548 -79.80566406 106.31689453 C-84.7395674 111.53664113 -88.32459249 118.02938863 -92.05566406 124.12939453 C-91.15926422 123.08821533 -90.26358243 122.04641792 -89.36816406 121.00439453 C-88.86929688 120.42431641 -88.37042969 119.84423828 -87.85644531 119.24658203 C-86.46037966 117.60522068 -85.10958834 115.92529816 -83.77832031 114.23095703 C-80.94830011 110.84173036 -77.73231829 108.23192386 -74.18066406 105.62939453 C-73.2102417 104.91601929 -73.2102417 104.91601929 -72.22021484 104.18823242 C-65.59671388 99.50863711 -58.69345287 96.77041307 -51.05566406 94.12939453 C-49.72535156 93.59378906 -49.72535156 93.59378906 -48.36816406 93.04736328 C-42.59400206 90.75525505 -37.24865214 89.87135336 -31.05566406 90.12939453 C-31.38566406 91.77939453 -31.71566406 93.42939453 -32.05566406 95.12939453 C-32.71566406 95.12939453 -33.37566406 95.12939453 -34.05566406 95.12939453 C-34.73805761 97.12408335 -35.3993689 99.12596719 -36.05566406 101.12939453 C-36.33152344 101.84482422 -36.60738281 102.56025391 -36.89160156 103.29736328 C-39.61572139 110.95738831 -40.03075051 118.96072074 -37.08691406 126.66455078 C-36.14321898 128.52160789 -35.10737631 130.33130586 -34.05566406 132.12939453 C-34.05566406 132.78939453 -34.05566406 133.44939453 -34.05566406 134.12939453 C-33.39566406 134.12939453 -32.73566406 134.12939453 -32.05566406 134.12939453 C-32.05566406 134.78939453 -32.05566406 135.44939453 -32.05566406 136.12939453 C-30.72345876 136.7983125 -29.38985835 137.46445256 -28.05566406 138.12939453 C-27.38615723 138.47389648 -26.71665039 138.81839844 -26.02685547 139.17333984 C-18.34380623 142.71319155 -10.72790476 142.7945476 -2.43066406 142.87939453 C-1.03088863 142.90761712 0.36885335 142.93755309 1.76855469 142.96923828 C5.16053851 143.03941726 8.55185552 143.09237405 11.94433594 143.12939453 C13.4760096 146.19274186 13.09163858 149.39900673 13.08959961 152.76025391 C13.09295822 153.54737259 13.09631683 154.33449127 13.09977722 155.14546204 C13.10929844 157.75470546 13.1112308 160.36388481 13.11230469 162.97314453 C13.11551602 164.7815351 13.11887999 166.58992541 13.12239075 168.39831543 C13.12838464 172.191331 13.13023034 175.98432377 13.12963867 179.77734375 C13.12953693 184.64678596 13.14319988 189.51608272 13.16041088 194.38549042 C13.17150697 198.12059201 13.17355863 201.85565815 13.17302895 205.59077454 C13.17421227 207.38658653 13.17865363 209.18239935 13.18636131 210.97819519 C13.19611486 213.48508015 13.19330189 215.99164549 13.18725586 218.49853516 C13.19287537 219.24561234 13.19849487 219.99268951 13.20428467 220.7624054 C13.17265284 225.90107763 13.17265284 225.90107763 10.94433594 228.12939453 C8.6003418 228.38818359 8.6003418 228.38818359 5.65917969 228.39501953 C4.57926758 228.39920898 3.49935547 228.40339844 2.38671875 228.40771484 C0.65180176 228.39369629 0.65180176 228.39369629 -1.11816406 228.37939453 C-2.29668945 228.37262695 -3.47521484 228.36585938 -4.68945312 228.35888672 C-24.86204826 228.12182151 -42.19013688 224.77633971 -60.05566406 215.12939453 C-60.86648437 214.71818359 -61.67730469 214.30697266 -62.51269531 213.88330078 C-82.43338207 203.51018642 -97.8454654 186.5606438 -107.42675781 166.49267578 C-108.38882733 164.50624448 -109.38785671 162.53586473 -110.46582031 160.60986328 C-119.55571022 144.29253797 -120.73188982 122.40930376 -120.05566406 104.12939453 C-120.02601562 103.11103516 -119.99636719 102.09267578 -119.96582031 101.04345703 C-118.93503484 81.08141648 -113.17362426 61.80633483 -102.05566406 45.12939453 C-101.39566406 45.12939453 -100.73566406 45.12939453 -100.05566406 45.12939453 C-99.85457031 44.44232422 -99.65347656 43.75525391 -99.44628906 43.04736328 C-97.56483394 39.09947851 -94.9030034 36.48573057 -91.80566406 33.44189453 C-91.18159668 32.82685059 -90.5575293 32.21180664 -89.91455078 31.578125 C-64.72062473 7.29505141 -34.20311216 -0.05044147 0 0 Z M-94.05566406 126.12939453 C-93.05566406 128.12939453 -93.05566406 128.12939453 -93.05566406 128.12939453 Z M-95.05566406 128.12939453 C-95.38566406 129.77939453 -95.71566406 131.42939453 -96.05566406 133.12939453 C-95.39566406 132.46939453 -94.73566406 131.80939453 -94.05566406 131.12939453 C-94.38566406 130.13939453 -94.71566406 129.14939453 -95.05566406 128.12939453 Z M-97.05566406 133.12939453 C-96.05566406 135.12939453 -96.05566406 135.12939453 -96.05566406 135.12939453 Z M-98.05566406 135.12939453 C-97.05566406 138.12939453 -97.05566406 138.12939453 -97.05566406 138.12939453 Z M-99.05566406 139.12939453 C-98.05566406 142.12939453 -98.05566406 142.12939453 -98.05566406 142.12939453 Z M-100.05566406 142.12939453 C-99.05566406 146.12939453 -99.05566406 146.12939453 -99.05566406 146.12939453 Z M-101.05566406 149.12939453 C-100.05566406 151.12939453 -100.05566406 151.12939453 -100.05566406 151.12939453 Z " fill="#CD0101" transform="translate(234.0556640625,66.87060546875)"/>
<path d="M0 0 C-0.33 1.65 -0.66 3.3 -1 5 C-1.66 5 -2.32 5 -3 5 C-3.68239354 6.99468882 -4.34370484 8.99657266 -5 11 C-5.27585937 11.71542969 -5.55171875 12.43085938 -5.8359375 13.16796875 C-8.56005733 20.82799378 -8.97508644 28.8313262 -6.03125 36.53515625 C-5.08755492 38.39221336 -4.05171224 40.20191132 -3 42 C-3 42.66 -3 43.32 -3 44 C-2.34 44 -1.68 44 -1 44 C-1 44.66 -1 45.32 -1 46 C0.33220531 46.66891796 1.66580571 47.33505803 3 48 C3.66950684 48.34450195 4.33901367 48.68900391 5.02880859 49.04394531 C12.71185784 52.58379702 20.32775931 52.66515307 28.625 52.75 C30.02477543 52.77822259 31.42451741 52.80815856 32.82421875 52.83984375 C36.21620258 52.91002273 39.60751958 52.96297952 43 53 C44.53167367 56.06334733 44.14730264 59.2696122 44.14526367 62.63085938 C44.14862228 63.41797806 44.1519809 64.20509674 44.15544128 65.0160675 C44.16496251 67.62531093 44.16689486 70.23449028 44.16796875 72.84375 C44.17118008 74.65214057 44.17454406 76.46053088 44.17805481 78.2689209 C44.18404871 82.06193647 44.1858944 85.85492924 44.18530273 89.64794922 C44.185201 94.51739143 44.19886394 99.38668819 44.21607494 104.25609589 C44.22717104 107.99119748 44.2292227 111.72626361 44.22869301 115.46138 C44.22987633 117.257192 44.23431769 119.05300482 44.24202538 120.84880066 C44.25177892 123.35568562 44.24896595 125.86225096 44.24291992 128.36914062 C44.24853943 129.1162178 44.25415894 129.86329498 44.25994873 130.63301086 C44.2283169 135.7716831 44.2283169 135.7716831 42 138 C39.65600586 138.25878906 39.65600586 138.25878906 36.71484375 138.265625 C35.63493164 138.26981445 34.55501953 138.27400391 33.44238281 138.27832031 C31.70746582 138.26430176 31.70746582 138.26430176 29.9375 138.25 C28.75897461 138.24323242 27.58044922 138.23646484 26.36621094 138.22949219 C6.1936158 137.99242698 -11.13447282 134.64694518 -29 125 C-30.21623047 124.38318359 -30.21623047 124.38318359 -31.45703125 123.75390625 C-50.91806968 113.6201403 -66.85014838 96.81765097 -76 77 C-74.515 76.01 -74.515 76.01 -73 75 C-72.93670478 72.07636367 -73.01803909 69.28592407 -73.1875 66.375 C-73.41101796 59.34660189 -72.74497896 53.50908579 -70.1875 46.9375 C-69.92670654 46.2657373 -69.66591309 45.59397461 -69.3972168 44.90185547 C-67.96418079 41.50905546 -67.13503669 40.09002446 -64 38 C-64 38.99 -64 39.98 -64 41 C-63.525625 39.88625 -63.05125 38.7725 -62.5625 37.625 C-59.71647731 31.90246153 -55.38602803 27.57707099 -51 23 C-50.21625 22.13375 -49.4325 21.2675 -48.625 20.375 C-39.82083674 12.40932848 -31.02977483 7.99924861 -20 4 C-19.10796875 3.6390625 -18.2159375 3.278125 -17.296875 2.90625 C-11.52405131 0.62853725 -6.18750107 -0.25781254 0 0 Z M-66 43 C-65 45 -65 45 -65 45 Z M-67 45 C-66 48 -66 48 -66 48 Z M-68 49 C-67 52 -67 52 -67 52 Z M-69 52 C-68 56 -68 56 -68 56 Z M-70 59 C-69 61 -69 61 -69 61 Z " fill="#890202" transform="translate(203,157)"/>
<path d="M0 0 C26.51128775 0.01716986 48.71801298 7.2383492 70.58334351 22.63092041 C71.20088501 23.06372314 71.81842651 23.49652588 72.4546814 23.94244385 C73.9338818 25.0140039 75.35849566 26.16016813 76.77084351 27.31842041 C76.77084351 27.97842041 76.77084351 28.63842041 76.77084351 29.31842041 C77.35511108 29.59629395 77.93937866 29.87416748 78.54135132 30.16046143 C85.53962518 33.79524164 92.01407066 39.33769553 95.77084351 46.31842041 C100.64069148 66.21226743 93.93154738 88.23958111 83.77084351 105.31842041 C81.65952401 108.56918218 79.38016678 111.45571243 76.77084351 114.31842041 C76.04381226 115.1369751 75.31678101 115.95552979 74.56771851 116.79888916 C65.3572414 126.61844621 54.75018681 132.85483161 41.77084351 136.31842041 C40.54881226 136.65486572 40.54881226 136.65486572 39.30209351 136.99810791 C34.36242644 138.23302468 29.85551327 138.50331749 24.77084351 138.31842041 C25.88081098 135.26600987 27.19995415 132.49097091 28.83334351 129.69342041 C31.76445418 124.58761472 32.01351045 120.38981978 32.08334351 114.63092041 C32.11234741 113.85297119 32.14135132 113.07502197 32.17123413 112.27349854 C32.22752076 107.0821396 31.31479456 103.54730392 28.73251343 99.03399658 C27.77084351 97.31842041 27.77084351 97.31842041 26.77084351 94.31842041 C26.11084351 94.31842041 25.45084351 94.31842041 24.77084351 94.31842041 C24.77084351 93.65842041 24.77084351 92.99842041 24.77084351 92.31842041 C24.23459351 92.05029541 23.69834351 91.78217041 23.14584351 91.50592041 C21.36233495 90.61416613 19.59381152 89.69233957 17.83334351 88.75592041 C13.04528141 86.50846269 8.66235248 86.18195865 3.41146851 86.03717041 C2.21392944 85.9997876 1.01639038 85.96240479 -0.21743774 85.92388916 C-2.74086301 85.85313892 -5.26430073 85.7828318 -7.78775024 85.71295166 C-9.57632446 85.65687744 -9.57632446 85.65687744 -11.40103149 85.59967041 C-13.04216919 85.55423096 -13.04216919 85.55423096 -14.71646118 85.50787354 C-17.22915649 85.31842041 -17.22915649 85.31842041 -18.22915649 84.31842041 C-18.35177537 82.856951 -18.40695234 81.38974685 -18.43447876 79.92340088 C-18.45441391 78.98146378 -18.47434906 78.03952667 -18.49488831 77.06904602 C-18.51161087 76.03501144 -18.52833344 75.00097687 -18.54556274 73.93560791 C-18.56643448 72.86527817 -18.58730621 71.79494843 -18.60881042 70.69218445 C-18.67519026 67.19267189 -18.73387866 63.69308484 -18.79165649 60.19342041 C-18.83378191 57.81085153 -18.87593688 55.42828317 -18.91812134 53.04571533 C-19.14310898 39.90802006 -19.32765543 26.77062742 -19.35415649 13.63092041 C-19.35874878 12.36425537 -19.36334106 11.09759033 -19.36807251 9.7925415 C-19.36605835 8.66283936 -19.36404419 7.53313721 -19.36196899 6.36920166 C-19.36084106 5.4066748 -19.35971313 4.44414795 -19.35855103 3.45245361 C-19.00412214 -2.39294809 -4.8856037 0.01228668 0 0 Z " fill="#7B7B7B" transform="translate(280.2291564941406,209.68157958984375)"/>
<path d="M0 0 C1.56677796 -0.00135844 3.1335556 -0.00314084 4.70033264 -0.00531006 C8.91231365 -0.00982728 13.12426988 -0.0081198 17.33625126 -0.00493097 C21.75466537 -0.00238302 26.17307749 -0.00475116 30.5914917 -0.00631714 C37.99508035 -0.00812947 45.39865897 -0.00575478 52.80224609 -0.00097656 C61.36907504 0.00448843 69.93588028 0.00268351 78.50270867 -0.00280297 C85.86938183 -0.0073321 93.23604783 -0.00798636 100.60272193 -0.0053643 C104.99841944 -0.00380352 109.39410576 -0.00360283 113.78980255 -0.00690079 C117.91028401 -0.0097774 122.03073459 -0.00780776 126.15121269 -0.00200653 C127.66660702 -0.00067883 129.18200392 -0.00107321 130.69739723 -0.0032692 C132.75673559 -0.00597972 134.81597333 -0.00260113 136.87530518 0.00241089 C138.03001942 0.00278791 139.18473366 0.00316494 140.37443924 0.00355339 C142.94433594 0.12939453 142.94433594 0.12939453 143.94433594 1.12939453 C144.24871298 6.91255838 143.53247435 11.57091009 141.94433594 17.12939453 C141.61433594 17.12939453 141.28433594 17.12939453 140.94433594 17.12939453 C140.91718211 15.37948119 140.89787043 13.62944508 140.88183594 11.87939453 C140.87023437 10.90486328 140.85863281 9.93033203 140.84667969 8.92626953 C140.93298337 6.45453208 141.30395324 4.49592989 141.94433594 2.12939453 C120.36013319 2.19000437 98.77604997 2.26755747 77.19198132 2.36510944 C67.16942079 2.41001555 57.14689538 2.44944214 47.12426758 2.47583008 C38.3853826 2.49885219 29.64660926 2.53229716 20.90781289 2.57809609 C16.28355382 2.60197157 11.65940492 2.62073747 7.03508568 2.62700844 C2.6757822 2.63308505 -1.6832396 2.65317727 -6.04243851 2.68367004 C-7.6358424 2.69240916 -9.22928317 2.69618148 -10.82271004 2.69440269 C-19.69276249 2.68763178 -27.58072565 3.37485991 -36.05566406 6.12939453 C-38.02881445 6.47786904 -40.00718541 6.8011019 -41.99316406 7.06689453 C-45.53812294 7.65940909 -46.8567295 7.97209744 -49.74316406 10.25439453 C-50.17628906 10.87314453 -50.60941406 11.49189453 -51.05566406 12.12939453 C-52.04566406 11.13939453 -53.03566406 10.14939453 -54.05566406 9.12939453 C-38.85866845 -1.00193588 -17.44515944 -0.02572747 0 0 Z " fill="#DB4846" transform="translate(234.0556640625,66.87060546875)"/>
<path d="M0 0 C3.68214308 0.01048157 7.36429387 0.01484909 11.04644775 0.01983643 C18.19034565 0.03036092 25.33421399 0.04728021 32.47808838 0.06866455 C32.47808838 0.39866455 32.47808838 0.72866455 32.47808838 1.06866455 C20.95879555 3.40658225 9.57121519 3.41515535 -2.13519287 3.48272705 C-4.20170334 3.50147126 -6.26820641 3.52104701 -8.33470154 3.54141235 C-13.73169566 3.59239618 -19.12871451 3.63220096 -24.52581787 3.66955566 C-30.04996689 3.70980874 -35.57401608 3.7608031 -41.0980835 3.81085205 C-51.90595573 3.9072109 -62.71388478 3.99174182 -73.52191162 4.06866455 C-70.86890351 1.41565644 -69.36671073 1.70159732 -65.65985107 1.47857666 C-64.48475983 1.40525116 -63.30966858 1.33192566 -62.09896851 1.25637817 C-60.91853973 1.19443268 -59.73811096 1.13248718 -58.52191162 1.06866455 C-57.01049088 0.98577682 -57.01049088 0.98577682 -55.46853638 0.9012146 C-36.98163069 -0.02221858 -18.50316815 -0.05854265 0 0 Z " fill="#D33D3F" transform="translate(271.52191162109375,146.93133544921875)"/>
<path d="M0 0 C8.58 0 17.16 0 26 0 C27.53167367 3.06334733 27.14730264 6.2696122 27.14526367 9.63085938 C27.14862228 10.41797806 27.1519809 11.20509674 27.15544128 12.0160675 C27.16496251 14.62531093 27.16689486 17.23449028 27.16796875 19.84375 C27.17118008 21.65214057 27.17454406 23.46053088 27.17805481 25.2689209 C27.18404871 29.06193647 27.1858944 32.85492924 27.18530273 36.64794922 C27.185201 41.51739143 27.19886394 46.38668819 27.21607494 51.25609589 C27.22717104 54.99119748 27.2292227 58.72626361 27.22869301 62.46138 C27.22987633 64.257192 27.23431769 66.05300482 27.24202538 67.84880066 C27.25177892 70.35568562 27.24896595 72.86225096 27.24291992 75.36914062 C27.24853943 76.1162178 27.25415894 76.86329498 27.25994873 77.63301086 C27.2283169 82.7716831 27.2283169 82.7716831 25 85 C22.38623047 85.22705078 22.38623047 85.22705078 19.1171875 85.1953125 C17.95058594 85.18886719 16.78398437 85.18242187 15.58203125 85.17578125 C14.35871094 85.15902344 13.13539063 85.14226562 11.875 85.125 C10.64394531 85.11597656 9.41289062 85.10695313 8.14453125 85.09765625 C5.09616185 85.07402548 2.04817618 85.04108054 -1 85 C-0.67 84.01 -0.34 83.02 0 82 C3.33333333 82 6.66666667 82 10 82 C10.93972656 81.98839844 11.87945312 81.97679687 12.84765625 81.96484375 C14.43900391 81.95130859 14.43900391 81.95130859 16.0625 81.9375 C17.12597656 81.92589844 18.18945312 81.91429687 19.28515625 81.90234375 C22 82 22 82 24 83 C25.17990032 79.46029903 25.13218895 76.27272521 25.11352539 72.59106445 C25.11367142 71.83960144 25.11381744 71.08813843 25.1139679 70.31390381 C25.11327129 67.83033358 25.10549067 65.34683837 25.09765625 62.86328125 C25.09579118 61.14121034 25.09436769 59.41913889 25.09336853 57.69706726 C25.0895504 53.16460709 25.07972611 48.63217896 25.06866455 44.09973145 C25.05843531 39.47469516 25.05386766 34.84965371 25.04882812 30.22460938 C25.03810322 21.14972324 25.0205121 12.0748693 25 3 C16.75 2.67 8.5 2.34 0 2 C0 1.34 0 0.68 0 0 Z " fill="#D77F82" transform="translate(220,210)"/>
<path d="M0 0 C0.495 0.99 0.495 0.99 1 2 C2.258125 1.62875 3.51625 1.2575 4.8125 0.875 C6.95703125 0.2421875 6.95703125 0.2421875 9 0 C9.99 0.66 10.98 1.32 12 2 C11.14019531 2.32871094 10.28039062 2.65742188 9.39453125 2.99609375 C-7.5265789 9.80513371 -19.38928829 19.2514194 -28.984375 34.79296875 C-30.56262591 37.30410052 -32.17251283 39.66937554 -34 42 C-33.67 39.03 -33.34 36.06 -33 33 C-32.01 33 -31.02 33 -30 33 C-30 32.01 -30 31.02 -30 30 C-29.34 30 -28.68 30 -28 30 C-28 28.68 -28 27.36 -28 26 C-27.34 26 -26.68 26 -26 26 C-25.67 24.02 -25.34 22.04 -25 20 C-23.02 19.67 -21.04 19.34 -19 19 C-19 18.34 -19 17.68 -19 17 C-18.34 17 -17.68 17 -17 17 C-17 15.68 -17 14.36 -17 13 C-16.01 13 -15.02 13 -14 13 C-13.34 11.68 -12.68 10.36 -12 9 C-10.02 9 -8.04 9 -6 9 C-5.34 7.02 -4.68 5.04 -4 3 C-3.34 3 -2.68 3 -2 3 C-2 2.34 -2 1.68 -2 1 C-1.34 0.67 -0.68 0.34 0 0 Z " fill="#AC1D22" transform="translate(173,153)"/>
<path d="M0 0 C0.33 0.66 0.66 1.32 1 2 C-0.51796264 4.87613974 -2.32233188 7.46047412 -4.1875 10.125 C-6.26665046 12.85652213 -6.26665046 12.85652213 -6 16 C-6.928125 16.2475 -7.85625 16.495 -8.8125 16.75 C-12.22175293 18.08696193 -13.03412252 19.05118379 -15 22 C-15.66 22 -16.32 22 -17 22 C-17.103125 23.0725 -17.20625 24.145 -17.3125 25.25 C-18.01194892 29.06517593 -18.65317682 30.11160224 -21 33 C-22.10460155 35.29917065 -23.0439895 37.6327359 -24 40 C-24.33 40 -24.66 40 -25 40 C-25.495 42.475 -25.495 42.475 -26 45 C-26.66 45 -27.32 45 -28 45 C-28.33 46.98 -28.66 48.96 -29 51 C-31.32124838 45.06630883 -27.38075032 38.48735623 -25 33 C-22.35405938 27.46875846 -19.40117313 22.10175969 -16 17 C-15.34 17 -14.68 17 -14 17 C-13.79632813 16.30519531 -13.59265625 15.61039063 -13.3828125 14.89453125 C-11.5446393 11.04682973 -8.93196012 8.60615218 -5.875 5.6875 C-5.31167969 5.13771484 -4.74835938 4.58792969 -4.16796875 4.02148438 C-2.78537942 2.67404562 -1.39359084 1.33605727 0 0 Z " fill="#9E3C3B" transform="translate(148,95)"/>
<path d="M0 0 C-0.33 1.65 -0.66 3.3 -1 5 C-1.66 5 -2.32 5 -3 5 C-3.33 6.32 -3.66 7.64 -4 9 C-7.28696233 9.79953138 -8.71023192 10.09658936 -12 9 C-13.33106622 8.65772583 -14.66400079 8.32248257 -16 8 C-16 7.34 -16 6.68 -16 6 C-16.886875 6.33 -17.77375 6.66 -18.6875 7 C-21.70923347 7.91222143 -23.88373706 8.18330958 -27 8 C-27.33 8.66 -27.66 9.32 -28 10 C-29.32 9.67 -30.64 9.34 -32 9 C-30.10435574 8.20788071 -28.20847629 7.41632424 -26.3125 6.625 C-25.25675781 6.18414062 -24.20101562 5.74328125 -23.11328125 5.2890625 C-15.28961287 2.0496515 -8.5432904 -0.35597043 0 0 Z " fill="#230203" transform="translate(203,157)"/>
<path d="M0 0 C2.05137315 3.48216283 2.56818592 6.77275657 3.125 10.75 C3.29257813 11.92046875 3.46015625 13.0909375 3.6328125 14.296875 C3.75398437 15.18890625 3.87515625 16.0809375 4 17 C4.66 17 5.32 17 6 17 C7.35432675 18.31200404 8.68733482 19.64631404 10 21 C10.66 21.33 11.32 21.66 12 22 C12.59355614 24.64860427 12.74209269 27.29197322 13 30 C4.34072233 23.66394317 -0.57174077 14.59116055 -5 5 C-4.34 4.67 -3.68 4.34 -3 4 C-2.34 4.66 -1.68 5.32 -1 6 C-0.67 4.02 -0.34 2.04 0 0 Z " fill="#723134" transform="translate(132,229)"/>
<path d="M0 0 C16.17 0 32.34 0 49 0 C49 6.56353916 48.6957905 10.06473326 47 16 C46.67 16 46.34 16 46 16 C45.97284617 14.25008666 45.95353449 12.50005055 45.9375 10.75 C45.92589844 9.77546875 45.91429687 8.8009375 45.90234375 7.796875 C46 5 46 5 47 1 C31.49 1 15.98 1 0 1 C0 0.67 0 0.34 0 0 Z " fill="#DF0E0A" transform="translate(329,68)"/>
<path d="M0 0 C1.2238892 2.44777839 1.016364 3.73390541 0.75 6.4375 C0.68296875 7.21996094 0.6159375 8.00242188 0.546875 8.80859375 C-0.09707492 11.38899307 -1.11661757 12.19719008 -3 14 C-3.16670273 16.95826106 -3.16670273 16.95826106 -3 20 C-3.2981424 21.34164079 -3.62243192 22.67851173 -4 24 C-4 24.66 -4 25.32 -4 26 C-4.66 26 -5.32 26 -6 26 C-6.33 26.66 -6.66 27.32 -7 28 C-9.5116351 18.50145271 -5.94718857 10.55390737 -2 2 C-1.34 1.34 -0.68 0.68 0 0 Z M-2 7 C-1 10 -1 10 -1 10 Z " fill="#991B1D" transform="translate(138,195)"/>
<path d="M0 0 C0.33 0.66 0.66 1.32 1 2 C2.258125 1.62875 3.51625 1.2575 4.8125 0.875 C6.95703125 0.2421875 6.95703125 0.2421875 9 0 C9.99 0.66 10.98 1.32 12 2 C11.07058594 2.38671875 10.14117187 2.7734375 9.18359375 3.171875 C2.92338992 5.80072106 -3.21212184 8.4170278 -9 12 C-9 11.01 -9 10.02 -9 9 C-8.01 9 -7.02 9 -6 9 C-5.34 7.02 -4.68 5.04 -4 3 C-3.34 3 -2.68 3 -2 3 C-2 2.34 -2 1.68 -2 1 C-1.34 0.67 -0.68 0.34 0 0 Z " fill="#BB3234" transform="translate(173,153)"/>
<path d="M0 0 C-5.84694425 3.89796283 -13.0740774 4.8964708 -19.9375 5.9375 C-23.48245888 6.53001456 -24.80106544 6.84270291 -27.6875 9.125 C-28.120625 9.74375 -28.55375 10.3625 -29 11 C-29.99 10.01 -30.98 9.02 -32 8 C-23.10562663 2.07041775 -10.62294257 -0.46186707 0 0 Z " fill="#BB3431" transform="translate(212,68)"/>
<path d="M0 0 C0.5625 1.9375 0.5625 1.9375 1 4 C0 5 0 5 -2.50024414 5.11352539 C-3.58426514 5.10828857 -4.66828613 5.10305176 -5.78515625 5.09765625 C-6.95498047 5.09443359 -8.12480469 5.09121094 -9.33007812 5.08789062 C-11.17762695 5.07532227 -11.17762695 5.07532227 -13.0625 5.0625 C-14.91584961 5.05573242 -14.91584961 5.05573242 -16.80664062 5.04882812 C-19.87114117 5.03699608 -22.93554721 5.02051173 -26 5 C-25.67 4.01 -25.34 3.02 -25 2 C-21.66666667 2 -18.33333333 2 -15 2 C-13.59041016 1.98259766 -13.59041016 1.98259766 -12.15234375 1.96484375 C-10.56099609 1.95130859 -10.56099609 1.95130859 -8.9375 1.9375 C-7.87402344 1.92589844 -6.81054688 1.91429687 -5.71484375 1.90234375 C-3 2 -3 2 -1 3 C-0.67 2.01 -0.34 1.02 0 0 Z " fill="#D04446" transform="translate(245,290)"/>
<path d="M0 0 C4.05596753 4.05596753 5.04667653 5.92135898 7 11 C5.68 11.33 4.36 11.66 3 12 C2.34 15.63 1.68 19.26 1 23 C0.67 23 0.34 23 0 23 C0 15.41 0 7.82 0 0 Z " fill="#9B9A9A" transform="translate(376,258)"/>
<path d="M0 0 C0.66 0 1.32 0 2 0 C0.23494997 8.35582193 -5.46022506 15.70073978 -11 22 C-11.33 22 -11.66 22 -12 22 C-12.25532751 18.93606987 -12.21861333 17.36766788 -10.625 14.6875 C-9.820625 13.8521875 -9.820625 13.8521875 -9 13 C-8.34 13 -7.68 13 -7 13 C-7 12.01 -7 11.02 -7 10 C-6.34 10 -5.68 10 -5 10 C-4.896875 9.360625 -4.79375 8.72125 -4.6875 8.0625 C-4.460625 7.381875 -4.23375 6.70125 -4 6 C-3.01 5.67 -2.02 5.34 -1 5 C-0.67 3.35 -0.34 1.7 0 0 Z " fill="#E8352A" transform="translate(368,96)"/>
<path d="M0 0 C0 0.66 0 1.32 0 2 C-0.99 2.66 -1.98 3.32 -3 4 C-3.99 5.485 -3.99 5.485 -5 7 C-5.99 7 -6.98 7 -8 7 C-11.03400866 9.14600613 -12.92683547 10.8902532 -15 14 C-18.125 14.1875 -18.125 14.1875 -21 14 C-16.21262661 8.73388927 -7.50659294 0 0 0 Z " fill="#A52B2D" transform="translate(170,81)"/>
<path d="M0 0 C0.66 0.33 1.32 0.66 2 1 C-1.24256955 8.1934674 -7.93362775 13.6665157 -15 17 C-15.99 17 -16.98 17 -18 17 C-18 16.34 -18 15.68 -18 15 C-16.35 14.67 -14.7 14.34 -13 14 C-13 13.34 -13 12.68 -13 12 C-11.64453125 10.66796875 -11.64453125 10.66796875 -9.8125 9.1875 C-6.6871582 6.60101024 -3.82564505 3.90875225 -1 1 C-0.67 0.67 -0.34 0.34 0 0 Z " fill="#494848" transform="translate(354,322)"/>
<path d="M0 0 C1.32 0.33 2.64 0.66 4 1 C2.02 4.96 0.04 8.92 -2 13 C-2.33 13 -2.66 13 -3 13 C-3.33 14.65 -3.66 16.3 -4 18 C-4.66 18 -5.32 18 -6 18 C-6.33 19.98 -6.66 21.96 -7 24 C-8.65762212 19.93680431 -7.2325178 17.086901 -5.75 13.125 C-5.09257813 11.33449219 -5.09257813 11.33449219 -4.421875 9.5078125 C-3.09764095 6.24088345 -1.62528068 3.1262752 0 0 Z " fill="#9D3D40" transform="translate(126,122)"/>
<path d="M0 0 C0.99 0.33 1.98 0.66 3 1 C3.309375 1.99 3.61875 2.98 3.9375 4 C4.288125 4.99 4.63875 5.98 5 7 C6.92638012 7.75243555 6.92638012 7.75243555 9 8 C10.75 9.5625 10.75 9.5625 12 11 C11.67 11.66 11.34 12.32 11 13 C8.85038384 11.54699102 6.70532871 10.0879574 4.5625 8.625 C3.95083984 8.2125 3.33917969 7.8 2.70898438 7.375 C-1.88671875 4.2265625 -1.88671875 4.2265625 -3 2 C-2.34 2 -1.68 2 -1 2 C-0.67 1.34 -0.34 0.68 0 0 Z " fill="#983D40" transform="translate(156,265)"/>
<path d="M0 0 C0.33 0.66 0.66 1.32 1 2 C-0.25 4.3125 -0.25 4.3125 -2 7 C-2.7734375 8.3921875 -2.7734375 8.3921875 -3.5625 9.8125 C-4.036875 10.534375 -4.51125 11.25625 -5 12 C-5.66 12 -6.32 12 -7 12 C-7.4375 9.9375 -7.4375 9.9375 -7 7 C-4.87919817 4.42739828 -2.49372439 2.20745501 0 0 Z M-8 12 C-6 14 -6 14 -6 16 C-7.32 16.33 -8.64 16.66 -10 17 C-10.33 16.34 -10.66 15.68 -11 15 C-10.01 14.01 -9.02 13.02 -8 12 Z " fill="#951C1E" transform="translate(148,95)"/>
<path d="M0 0 C0.66 0 1.32 0 2 0 C1.44021635 3.87069917 0.3596506 6.36617141 -1.875 9.5625 C-2.64457031 10.67818359 -2.64457031 10.67818359 -3.4296875 11.81640625 C-4.9269451 13.89841371 -6.45172286 15.95571791 -8 18 C-7.67 15.03 -7.34 12.06 -7 9 C-6.01 9 -5.02 9 -4 9 C-4 8.01 -4 7.02 -4 6 C-3.34 6 -2.68 6 -2 6 C-2 4.68 -2 3.36 -2 2 C-1.34 2 -0.68 2 0 2 C0 1.34 0 0.68 0 0 Z " fill="#B75556" transform="translate(147,177)"/>
<path d="M0 0 C0.625 3.0625 0.625 3.0625 1 6 C0.01 5.67 -0.98 5.34 -2 5 C-5.1668838 6.37492804 -5.1668838 6.37492804 -8 8 C-8.20086443 4.28400809 -8.1519437 3.22791555 -6 0 C-3.39677846 -0.97620808 -2.52782417 -1.26391209 0 0 Z " fill="#301011" transform="translate(159,178)"/>
<path d="M0 0 C0.99 0 1.98 0 3 0 C3 0.66 3 1.32 3 2 C2.34 2 1.68 2 1 2 C1 2.66 1 3.32 1 4 C0.34 4 -0.32 4 -1 4 C-1.24492187 4.60328125 -1.48984375 5.2065625 -1.7421875 5.828125 C-3.22565933 8.38964779 -4.58473931 9.27500992 -7.125 10.75 C-7.84945313 11.17796875 -8.57390625 11.6059375 -9.3203125 12.046875 C-9.87460937 12.36140625 -10.42890625 12.6759375 -11 13 C-11 12.01 -11 11.02 -11 10 C-10.01 10 -9.02 10 -8 10 C-7.67 8.68 -7.34 7.36 -7 6 C-6.34 6 -5.68 6 -5 6 C-5 5.34 -5 4.68 -5 4 C-4.01 4 -3.02 4 -2 4 C-1.34 2.68 -0.68 1.36 0 0 Z " fill="#E74343" transform="translate(352,118)"/>
<path d="M0 0 C0.99 0.495 0.99 0.495 2 1 C1.01 1.495 1.01 1.495 0 2 C0 1.34 0 0.68 0 0 Z M-2 1 C-1.34 1.66 -0.68 2.32 0 3 C-0.171875 5.0234375 -0.171875 5.0234375 -0.75 7.375 C-1.02070312 8.53128906 -1.02070312 8.53128906 -1.296875 9.7109375 C-1.99166211 11.97285553 -2.91319868 13.90402602 -4 16 C-4.33 16.99 -4.66 17.98 -5 19 C-5.66 18.67 -6.32 18.34 -7 18 C-6.32829194 14.1936543 -5.27253436 10.64793184 -4 7 C-3.34 7 -2.68 7 -2 7 C-2 5.02 -2 3.04 -2 1 Z " fill="#851114" transform="translate(124,133)"/>
<path d="M0 0 C1 3 1 3 0 6 C-5.10916517 8.66422132 -10.32806491 9.36203841 -16 9 C-11.62615587 6.08410391 -8.29457529 4.69745284 -3 5 C-2.67 4.01 -2.34 3.02 -2 2 C-1.34 2 -0.68 2 0 2 C0 1.34 0 0.68 0 0 Z " fill="#3F3D3E" transform="translate(334,336)"/>
<path d="M0 0 C-3.16063087 2.60332156 -6.3431652 4.14038576 -10.125 5.6875 C-11.70667969 6.34298828 -11.70667969 6.34298828 -13.3203125 7.01171875 C-16 8 -16 8 -18 8 C-17.67 7.01 -17.34 6.02 -17 5 C-15.35 5 -13.7 5 -12 5 C-12 4.34 -12 3.68 -12 3 C-10.68 3 -9.36 3 -8 3 C-8 2.34 -8 1.68 -8 1 C-5.29120665 -0.35439668 -2.99066732 -0.06501451 0 0 Z " fill="#E14545" transform="translate(333,136)"/>
<path d="M0 0 C0 0.66 0 1.32 0 2 C3.3 2 6.6 2 10 2 C10.33 2.66 10.66 3.32 11 4 C3.25798419 3.61422945 -3.67671225 2.57611228 -11 0 C-11 -0.33 -11 -0.66 -11 -1 C-6.58937864 -2.0257259 -4.07369424 -2.03684712 0 0 Z " fill="#C05050" transform="translate(203,290)"/>
<path d="M0 0 C1.5 1.125 1.5 1.125 3 3 C3.1875 6.1875 3.1875 6.1875 3 9 C3.66 9 4.32 9 5 9 C4.67 10.98 4.34 12.96 4 15 C1.66948692 12.13982486 0.01826667 9.56393336 -1 6 C-0.625 2.6875 -0.625 2.6875 0 0 Z " fill="#A2383B" transform="translate(121,214)"/>
<path d="M0 0 C0 0.99 0 1.98 0 3 C1.32 3 2.64 3 4 3 C3.67 4.32 3.34 5.64 3 7 C0.36 7 -2.28 7 -5 7 C-3.75023244 3.34683329 -3.32901247 2.21934164 0 0 Z " fill="#575355" transform="translate(310,341)"/>
<path d="M0 0 C1.98 0 3.96 0 6 0 C6.20674944 5.78898419 5.59162079 10.42932723 4 16 C3.67 16 3.34 16 3 16 C2.97284617 14.25008666 2.95353449 12.50005055 2.9375 10.75 C2.92589844 9.77546875 2.91429687 8.8009375 2.90234375 7.796875 C2.98804423 5.34241322 3.29293934 3.33831086 4 1 C2.68 0.67 1.36 0.34 0 0 Z " fill="#E4383B" transform="translate(372,68)"/>
<path d="M0 0 C0.66 0.33 1.32 0.66 2 1 C1 3 1 3 -1.75 4.125 C-4.70186896 4.91973395 -6.97219837 5.17810598 -10 5 C-10.33 5.66 -10.66 6.32 -11 7 C-12.32 6.67 -13.64 6.34 -15 6 C-13.06305322 5.18618205 -11.12542289 4.37399084 -9.1875 3.5625 C-8.10855469 3.11003906 -7.02960938 2.65757812 -5.91796875 2.19140625 C-3.9704874 1.39624987 -1.99561057 0.66520352 0 0 Z " fill="#60494A" transform="translate(186,160)"/>
<path d="M0 0 C-0.33 1.65 -0.66 3.3 -1 5 C-1.66 5 -2.32 5 -3 5 C-3.33 5.66 -3.66 6.32 -4 7 C-3.67 5.02 -3.34 3.04 -3 1 C-4.051875 1.515625 -5.10375 2.03125 -6.1875 2.5625 C-9.48523767 3.99688183 -11.5064368 4.16452107 -15 3 C-15 2.67 -15 2.34 -15 2 C-9.77487721 0.53329887 -5.4185766 -0.22577402 0 0 Z " fill="#786568" transform="translate(203,157)"/>
<path d="M0 0 C0.33 0.66 0.66 1.32 1 2 C0.67 2.66 0.34 3.32 0 4 C-0.66 4 -1.32 4 -2 4 C-2 4.66 -2 5.32 -2 6 C-2.66 6 -3.32 6 -4 6 C-4 6.66 -4 7.32 -4 8 C-6.31 8.33 -8.62 8.66 -11 9 C-8.22719294 5.91910327 -5.93673644 4.31224548 -2 3 C-2 2.34 -2 1.68 -2 1 C-1.34 0.67 -0.68 0.34 0 0 Z " fill="#A8A7A7" transform="translate(351,334)"/>
<path d="M0 0 C0.433125 0.556875 0.86625 1.11375 1.3125 1.6875 C3.41239652 2.86324711 3.41239652 2.86324711 5.3125 3.6875 C-0.83984375 3.78515625 -0.83984375 3.78515625 -2.6875 3.6875 C-3.0175 3.3575 -3.3475 3.0275 -3.6875 2.6875 C-6.01567964 2.31989269 -8.3493385 1.98508419 -10.6875 1.6875 C-7.8488557 -1.1511443 -3.43470617 -2.67143813 0 0 Z " fill="#B4090B" transform="translate(216.6875,290.3125)"/>
<path d="M0 0 C0.66 0.33 1.32 0.66 2 1 C2.04254356 2.99954746 2.04080783 5.00041636 2 7 C1.67 7.33 1.34 7.66 1 8 C0.76924918 9.34747084 0.58846937 10.70377565 0.4375 12.0625 C0.2209375 14.0115625 0.2209375 14.0115625 0 16 C-0.99 15.67 -1.98 15.34 -3 15 C-2.69163768 12.87439563 -2.37818386 10.74952935 -2.0625 8.625 C-1.88847656 7.44164062 -1.71445313 6.25828125 -1.53515625 5.0390625 C-1 2 -1 2 0 0 Z " fill="#850909" transform="translate(132,221)"/>
<path d="M0 0 C1.73430205 3.46860409 0.90367044 7.31788015 0 11 C-2.0625 13.0625 -2.0625 13.0625 -4 14 C-4.31549088 8.7418187 -3.70016294 5.53627373 -1 1 C-0.67 0.67 -0.34 0.34 0 0 Z M-2 7 C-1 10 -1 10 -1 10 Z " fill="#AD4D4F" transform="translate(138,195)"/>
<path d="M0 0 C1 3 1 3 0.00390625 5.48046875 C-0.47175781 6.37378906 -0.94742187 7.26710938 -1.4375 8.1875 C-1.91058594 9.08855469 -2.38367188 9.98960937 -2.87109375 10.91796875 C-3.24363281 11.60503906 -3.61617188 12.29210937 -4 13 C-4.66 13 -5.32 13 -6 13 C-5.12070969 8.35232265 -4.4559783 5.3119792 -1 2 C-0.67 1.34 -0.34 0.68 0 0 Z " fill="#494648" transform="translate(368,302)"/>
<path d="M0 0 C0.99 0.33 1.98 0.66 3 1 C3 4 3 4 0.625 6.625 C-2 9 -2 9 -4 10 C-3.5205537 5.78087253 -2.83374881 3.20336822 0 0 Z " fill="#430C0F" transform="translate(139,203)"/>
<path d="M0 0 C0.66 0 1.32 0 2 0 C0.44499019 3.81684226 -2.03595495 6.19195732 -5 9 C-5.33 7.02 -5.66 5.04 -6 3 C-4.02 2.67 -2.04 2.34 0 2 C0 1.34 0 0.68 0 0 Z " fill="#A92D2E" transform="translate(154,170)"/>
<path d="M0 0 C0.33 0 0.66 0 1 0 C1 3.63 1 7.26 1 11 C0.01 11 -0.98 11 -2 11 C-2.99 8.69 -3.98 6.38 -5 4 C-4.34 4 -3.68 4 -3 4 C-2.34 4.66 -1.68 5.32 -1 6 C-0.67 4.02 -0.34 2.04 0 0 Z " fill="#9C3C3C" transform="translate(132,229)"/>
<path d="M0 0 C1.32 0 2.64 0 4 0 C3.01 3.96 2.02 7.92 1 12 C0.67 12 0.34 12 0 12 C-1.10344828 3.31034483 -1.10344828 3.31034483 0 0 Z " fill="#70494B" transform="translate(194,166)"/>
<path d="M0 0 C2.625 -0.1875 2.625 -0.1875 5 0 C5.33 0.66 5.66 1.32 6 2 C4.02 2.33 2.04 2.66 0 3 C-0.33 4.98 -0.66 6.96 -1 9 C-1.33 9 -1.66 9 -2 9 C-2.25 3.375 -2.25 3.375 0 0 Z " fill="#A10202" transform="translate(148,170)"/>
<path d="M0 0 C0 1.65 0 3.3 0 5 C-1.98 5.33 -3.96 5.66 -6 6 C-5.75 4.125 -5.75 4.125 -5 2 C-1.8 0 -1.8 0 0 0 Z " fill="#F70303" transform="translate(367,96)"/>
<path d="M0 0 C0.66 0 1.32 0 2 0 C1.55149342 1.81495662 1.09090429 3.62693134 0.625 5.4375 C0.24214844 6.95150391 0.24214844 6.95150391 -0.1484375 8.49609375 C-1 11 -1 11 -3 12 C-2.67 9.03 -2.34 6.06 -2 3 C-1.34 3 -0.68 3 0 3 C0 2.01 0 1.02 0 0 Z " fill="#E4353F" transform="translate(373,84)"/>
<path d="M0 0 C0.33 0 0.66 0 1 0 C1.66 4.29 2.32 8.58 3 13 C1.68 12.34 0.36 11.68 -1 11 C-0.67 7.37 -0.34 3.74 0 0 Z " fill="#5D1919" transform="translate(133,233)"/>
<path d="M0 0 C0 0.66 0 1.32 0 2 C-0.99 2.66 -1.98 3.32 -3 4 C-3.99 5.485 -3.99 5.485 -5 7 C-6.32 6.34 -7.64 5.68 -9 5 C-6.45523312 2.20075644 -3.92372883 0 0 0 Z " fill="#AA3536" transform="translate(170,81)"/>
<path d="M0 0 C3.12991745 3.12991745 3.15156547 6.32723039 3.1875 10.625 C3.20167969 11.40101563 3.21585937 12.17703125 3.23046875 12.9765625 C3 15 3 15 1 17 C0.67 11.39 0.34 5.78 0 0 Z " fill="#484748" transform="translate(313,313)"/>
<path d="M0 0 C0.66 0 1.32 0 2 0 C2 0.66 2 1.32 2 2 C2.99 2.33 3.98 2.66 5 3 C3.68 3 2.36 3 1 3 C1 3.66 1 4.32 1 5 C-1.31 5.33 -3.62 5.66 -6 6 C-5.67 5.01 -5.34 4.02 -5 3 C-3.68 3 -2.36 3 -1 3 C-0.67 2.01 -0.34 1.02 0 0 Z " fill="#F70407" transform="translate(320,136)"/>
<path d="M0 0 C2.31 0.33 4.62 0.66 7 1 C7 1.66 7 2.32 7 3 C7.99 3.33 8.98 3.66 10 4 C10 4.99 10 5.98 10 7 C9.34 7 8.68 7 8 7 C8 6.34 8 5.68 8 5 C7.4225 4.731875 6.845 4.46375 6.25 4.1875 C3.9674132 2.98280141 2.0262058 1.59201885 0 0 Z " fill="#949394" transform="translate(297,297)"/>
<path d="M0 0 C3 3.625 3 3.625 3 7 C1.35 6.67 -0.3 6.34 -2 6 C-1.34 4.02 -0.68 2.04 0 0 Z " fill="#A52727" transform="translate(189,282)"/>
<path d="M0 0 C0.66 0.33 1.32 0.66 2 1 C0.35 2.65 -1.3 4.3 -3 6 C-3.33 5.34 -3.66 4.68 -4 4 C-5.32 4.33 -6.64 4.66 -8 5 C-6.35197949 1.70395897 -3.32254422 1.22409524 0 0 Z " fill="#B53C3C" transform="translate(178,76)"/>
<path d="M0 0 C0.99 0.33 1.98 0.66 3 1 C3 2.32 3 3.64 3 5 C0.5625 4.625 0.5625 4.625 -2 4 C-2.33 3.34 -2.66 2.68 -3 2 C-2.34 2 -1.68 2 -1 2 C-0.67 1.34 -0.34 0.68 0 0 Z " fill="#82292B" transform="translate(156,265)"/>
<path d="M0 0 C0.99 0 1.98 0 3 0 C2.46930939 3.82097239 1.50298434 6.06171403 -1 9 C-0.67 6.03 -0.34 3.06 0 0 Z " fill="#A9373C" transform="translate(140,186)"/>
<path d="M0 0 C0.66 0 1.32 0 2 0 C1.29445932 3.66881155 -0.27735506 6.70450534 -2 10 C-2.33 10 -2.66 10 -3 10 C-3 8.35 -3 6.7 -3 5 C-2.34 5 -1.68 5 -1 5 C-0.67 3.35 -0.34 1.7 0 0 Z " fill="#E84C52" transform="translate(368,96)"/>
<path d="M0 0 C0.66 0.33 1.32 0.66 2 1 C0.60667426 4.36720387 -0.9789286 5.9859524 -4 8 C-3.40072174 4.64404172 -2.15377564 2.62198774 0 0 Z " fill="#3E3D3D" transform="translate(354,322)"/>
<path d="M0 0 C1.32 1.32 2.64 2.64 4 4 C3 6 3 6 0 10 C0 6.7 0 3.4 0 0 Z " fill="#B1AEAF" transform="translate(376,258)"/>
<path d="M0 0 C3.63 0.33 7.26 0.66 11 1 C11 1.33 11 1.66 11 2 C9.95199219 2.09087891 9.95199219 2.09087891 8.8828125 2.18359375 C7.97273438 2.26738281 7.06265625 2.35117188 6.125 2.4375 C5.22007812 2.51871094 4.31515625 2.59992188 3.3828125 2.68359375 C0.98889139 2.86989285 0.98889139 2.86989285 -1 4 C-0.67 2.68 -0.34 1.36 0 0 Z " fill="#A7A6A7" transform="translate(296,211)"/>
<path d="M0 0 C0.33 0 0.66 0 1 0 C0.6875 3.375 0.6875 3.375 0 7 C-0.99 7.66 -1.98 8.32 -3 9 C-3 7.35 -3 5.7 -3 4 C-2.34 4 -1.68 4 -1 4 C-0.67 2.68 -0.34 1.36 0 0 Z " fill="#EB272C" transform="translate(364,102)"/>
<path d="M0 0 C2.6875 0.875 2.6875 0.875 5 2 C1.36576791 4.32590854 -1.77088331 4.16265833 -6 4 C-4 2.66666667 -2 1.33333333 0 0 Z " fill="#514F50" transform="translate(324,341)"/>
<path d="M0 0 C3.37462715 0.54723683 5.08235 1.0549 8 3 C3.25 4 3.25 4 1 4 C0.67 2.68 0.34 1.36 0 0 Z " fill="#ABA9AA" transform="translate(318,216)"/>
<path d="M0 0 C1.5625 1.5625 1.5625 1.5625 3 4 C2.6875 7.75 2.6875 7.75 2 11 C0 9 0 9 -0.1953125 6.8359375 C-0.17210938 6.02382812 -0.14890625 5.21171875 -0.125 4.375 C-0.10695313 3.55773437 -0.08890625 2.74046875 -0.0703125 1.8984375 C-0.04710938 1.27195313 -0.02390625 0.64546875 0 0 Z " fill="#80080A" transform="translate(117,197)"/>
<path d="M0 0 C2.25 0.25 2.25 0.25 4 1 C2.8125 2.5 2.8125 2.5 1 4 C-1.6875 4.1875 -1.6875 4.1875 -4 4 C-2.25 1.9375 -2.25 1.9375 0 0 Z " fill="#220202" transform="translate(166,170)"/>
<path d="M0 0 C-0.33 0.99 -0.66 1.98 -1 3 C-1.66 3 -2.32 3 -3 3 C-3.33 4.32 -3.66 5.64 -4 7 C-4.66 6.67 -5.32 6.34 -6 6 C-6 5.01 -6 4.02 -6 3 C-5.34 3 -4.68 3 -4 3 C-4 2.34 -4 1.68 -4 1 C-2 0 -2 0 0 0 Z " fill="#9F0301" transform="translate(174,80)"/>
<path d="M0 0 C0.66 0.33 1.32 0.66 2 1 C-3.14285714 6.57142857 -3.14285714 6.57142857 -7 7 C-4.66666667 4.66666667 -2.33333333 2.33333333 0 0 Z " fill="#6B5153" transform="translate(162,171)"/>
<path d="M0 0 C0.99 0.33 1.98 0.66 3 1 C3 2.65 3 4.3 3 6 C1.68 5.34 0.36 4.68 -1 4 C-0.67 2.68 -0.34 1.36 0 0 Z " fill="#371817" transform="translate(196,160)"/>
<path d="M0 0 C-2.62198774 2.15377564 -4.64404172 3.40072174 -8 4 C-8 3.01 -8 2.02 -8 1 C-5.29120665 -0.35439668 -2.99066732 -0.06501451 0 0 Z " fill="#E74C4B" transform="translate(333,136)"/>
<path d="M0 0 C1.5 1.3125 1.5 1.3125 3 3 C3 3.99 3 4.98 3 6 C1.68 6 0.36 6 -1 6 C-0.67 4.02 -0.34 2.04 0 0 Z " fill="#A2292F" transform="translate(121,214)"/>
<path d="M0 0 C0.66 0 1.32 0 2 0 C1.8125 1.8125 1.8125 1.8125 1 4 C-1.5625 5.75 -1.5625 5.75 -4 7 C-4 6.01 -4 5.02 -4 4 C-3.01 4 -2.02 4 -1 4 C-0.67 2.68 -0.34 1.36 0 0 Z " fill="#E63131" transform="translate(345,124)"/>
</svg>
