<?xml version="1.0" standalone="no"?>
<!DOCTYPE svg PUBLIC "-//W3C//DTD SVG 20010904//EN"
 "http://www.w3.org/TR/2001/REC-SVG-20010904/DTD/svg10.dtd">
<svg version="1.0" xmlns="http://www.w3.org/2000/svg"
 width="241.000000pt" height="80.000000pt" viewBox="0 0 241.000000 80.000000"
 preserveAspectRatio="xMidYMid meet">
<metadata>
Created by potrace 1.10, written by Peter Selinger 2001-2011
</metadata>
<g transform="translate(0.000000,80.000000) scale(0.100000,-0.100000)"
fill="#FFFF" stroke="none">
<path d="M330 720 c-76 -14 -120 -59 -120 -124 1 -55 21 -78 110 -123 82 -42
102 -70 84 -120 -12 -36 -61 -56 -95 -40 -29 15 -40 73 -15 83 24 9 19 33 -9
44 -66 25 -123 -66 -79 -128 23 -34 67 -52 124 -52 103 0 160 52 160 145 -1
66 -19 88 -116 139 -71 37 -79 44 -82 72 -4 40 19 64 63 64 36 0 56 -20 48
-50 -6 -22 22 -33 47 -20 45 24 27 94 -28 105 -49 11 -57 11 -92 5z"/>
<path d="M547 663 c-4 -3 -7 -20 -7 -36 0 -22 4 -28 16 -23 9 3 24 6 34 6 20
0 32 23 24 45 -6 15 -55 21 -67 8z"/>
<path d="M1452 624 c-14 -10 -22 -25 -22 -45 0 -19 -5 -29 -15 -29 -8 0 -15
-9 -15 -20 0 -12 7 -20 18 -20 16 0 17 -9 10 -117 -6 -103 -5 -120 9 -130 9
-7 26 -13 38 -13 21 0 22 2 17 129 l-5 129 24 4 c35 5 38 38 4 38 -27 0 -27 1
-21 45 8 50 -2 57 -42 29z"/>
<path d="M845 561 c-11 -5 -36 -6 -55 -4 -44 5 -93 -24 -115 -68 -19 -36 -31
-125 -21 -163 14 -57 76 -85 110 -50 25 24 20 54 -8 54 -29 0 -36 16 -36 84 0
88 69 149 84 75 16 -81 -3 -308 -30 -360 -8 -16 -24 -33 -35 -40 -32 -17 -9
-30 33 -19 44 13 85 58 92 103 7 42 12 397 6 396 -3 0 -14 -4 -25 -8z"/>
<path d="M550 549 c-33 -14 -35 -16 -19 -35 11 -13 13 -45 11 -131 l-3 -113
27 -10 c15 -6 31 -9 36 -8 5 2 10 72 11 156 2 146 1 152 -18 151 -11 0 -31 -5
-45 -10z"/>
<path d="M915 407 l1 -152 24 3 c45 7 48 16 43 121 -6 109 3 141 41 141 45 0
51 -22 33 -117 -19 -101 -11 -132 38 -145 37 -9 51 3 35 32 -9 17 -10 52 -5
121 6 96 6 99 -19 124 -28 27 -92 35 -114 13 -9 -9 -15 -9 -24 0 -7 7 -21 12
-32 12 -20 0 -21 -5 -21 -153z"/>
<path d="M1212 550 c-31 -13 -49 -54 -32 -75 19 -23 53 -15 60 15 5 20 12 25
35 25 25 0 31 -4 33 -27 3 -24 -1 -28 -52 -42 -93 -27 -132 -100 -85 -160 33
-42 109 -30 109 18 0 19 -4 22 -24 19 -29 -6 -40 10 -32 42 6 22 50 55 75 55
6 0 11 -34 13 -77 l3 -78 39 -3 c34 -3 38 -1 30 15 -4 10 -10 71 -12 136 l-4
117 -28 15 c-32 17 -93 19 -128 5z"/>
<path d="M1556 434 c1 -112 4 -128 22 -146 23 -23 84 -27 108 -7 11 9 17 10
22 2 4 -6 19 -14 34 -18 l28 -7 -6 78 c-3 44 -2 112 3 152 9 70 9 72 -12 72
-12 0 -29 -6 -39 -13 -16 -12 -18 -27 -17 -109 2 -77 -1 -99 -14 -112 -18 -18
-25 -19 -49 -10 -20 7 -21 47 -4 145 12 66 11 72 -7 85 -10 8 -30 14 -44 14
l-26 0 1 -126z"/>
<path d="M1815 410 l-1 -149 26 6 c14 3 28 8 33 10 4 2 7 50 7 107 0 110 12
145 45 132 14 -5 16 -14 12 -43 -7 -43 5 -63 39 -63 23 0 24 4 24 59 0 51 -3
62 -22 75 -26 18 -69 21 -85 5 -8 -8 -17 -8 -31 0 -45 24 -47 20 -47 -139z"/>
<path d="M2092 547 c-48 -23 -82 -133 -63 -204 16 -57 50 -86 103 -85 35 1 48
7 71 32 15 16 27 39 27 50 0 23 -18 27 -26 6 -3 -8 -19 -19 -36 -25 -26 -9
-33 -7 -54 14 -27 27 -24 45 7 45 28 0 75 26 93 52 54 77 -33 159 -122 115z
m66 -29 c7 -7 12 -23 12 -35 0 -27 -41 -73 -65 -73 -23 0 -19 62 6 94 23 29
30 31 47 14z"/>
</g>
</svg>
